<svg width="24" height="20" viewBox="0 0 24 20" fill="none" xmlns="http://www.w3.org/2000/svg">
<path d="M14.3299 19.7142L23.9399 10.0542L14.3299 0.394159C14.2432 0.280185 14.1329 0.18619 14.0066 0.118536C13.8803 0.0508828 13.741 0.0111505 13.598 0.00202883C13.4551 -0.00709283 13.3118 0.0146097 13.178 0.0656665C13.0441 0.116723 12.9228 0.195943 12.8222 0.297962C12.7216 0.399981 12.6442 0.522417 12.595 0.656983C12.5459 0.791548 12.5262 0.935101 12.5374 1.07792C12.5486 1.22074 12.5903 1.3595 12.6597 1.4848C12.7292 1.61009 12.8247 1.719 12.9399 1.80416L20.1299 9.05416L0.99994 9.05416C0.734724 9.05416 0.480371 9.15951 0.292835 9.34705C0.105298 9.53459 -5.95557e-05 9.78894 -5.95673e-05 10.0542C-5.95789e-05 10.3194 0.105298 10.5737 0.292835 10.7613C0.480371 10.9488 0.734724 11.0542 0.99994 11.0542L20.1299 11.0542L12.9399 18.3042C12.753 18.4925 12.6484 18.7473 12.6494 19.0127C12.6503 19.2781 12.7566 19.5322 12.9449 19.7192C13.1332 19.9061 13.3881 20.0107 13.6535 20.0097C13.9188 20.0088 14.173 19.9025 14.3599 19.7142L14.3299 19.7142Z" fill="white"/>
</svg>
