<svg width="25" height="25" viewBox="0 0 25 25" fill="none" xmlns="http://www.w3.org/2000/svg">
<g clip-path="url(#clip0_71_5)">
<path d="M14.1596 19.2083L20.8333 12.5L14.1596 5.79167C14.0994 5.71252 14.0228 5.64724 13.9351 5.60026C13.8474 5.55328 13.7507 5.52569 13.6514 5.51935C13.5521 5.51302 13.4526 5.52809 13.3597 5.56355C13.2667 5.599 13.1825 5.65402 13.1126 5.72486C13.0428 5.79571 12.989 5.88073 12.9548 5.97418C12.9207 6.06763 12.9071 6.16732 12.9148 6.2665C12.9226 6.36568 12.9515 6.46204 12.9998 6.54905C13.048 6.63606 13.1144 6.7117 13.1944 6.77083L18.1874 11.8056L4.9027 11.8056C4.71852 11.8056 4.54189 11.8787 4.41165 12.009C4.28142 12.1392 4.20825 12.3158 4.20825 12.5C4.20825 12.6842 4.28142 12.8608 4.41165 12.991C4.54189 13.1213 4.71852 13.1944 4.9027 13.1944L18.1874 13.1944L13.1944 18.2292C13.0645 18.3599 12.9919 18.5369 12.9926 18.7212C12.9932 18.9055 13.0671 19.082 13.1978 19.2118C13.3286 19.3417 13.5056 19.4142 13.6899 19.4136C13.8742 19.4129 14.0506 19.3391 14.1805 19.2083L14.1596 19.2083Z" fill="#4C98AA"/>
</g>
<defs>
<clipPath id="clip0_71_5">
<rect width="25" height="25" fill="white" transform="translate(25) rotate(90)"/>
</clipPath>
</defs>
</svg>
