<svg width="46" height="46" viewBox="0 0 46 46" fill="none" xmlns="http://www.w3.org/2000/svg">
<circle cx="23" cy="23" r="22.5" stroke="#4C98AA"/>
<g clip-path="url(#clip0_95_2)">
<path d="M24.1596 29.2083L30.8333 22.5L24.1596 15.7917C24.0994 15.7125 24.0228 15.6472 23.9351 15.6003C23.8474 15.5533 23.7507 15.5257 23.6514 15.5194C23.5521 15.513 23.4526 15.5281 23.3597 15.5635C23.2667 15.599 23.1825 15.654 23.1126 15.7249C23.0428 15.7957 22.989 15.8807 22.9548 15.9742C22.9207 16.0676 22.9071 16.1673 22.9148 16.2665C22.9226 16.3657 22.9515 16.462 22.9998 16.5491C23.048 16.6361 23.1144 16.7117 23.1944 16.7708L28.1874 21.8056L14.9027 21.8056C14.7185 21.8056 14.5419 21.8787 14.4117 22.009C14.2814 22.1392 14.2083 22.3158 14.2083 22.5C14.2083 22.6842 14.2814 22.8608 14.4117 22.991C14.5419 23.1213 14.7185 23.1944 14.9027 23.1944L28.1874 23.1944L23.1944 28.2292C23.0645 28.3599 22.9919 28.5369 22.9926 28.7212C22.9932 28.9055 23.0671 29.082 23.1978 29.2118C23.3286 29.3417 23.5056 29.4142 23.6899 29.4136C23.8742 29.4129 24.0506 29.3391 24.1805 29.2083L24.1596 29.2083Z" fill="#4C98AA"/>
</g>
<defs>
<clipPath id="clip0_95_2">
<rect width="25" height="25" fill="white" transform="translate(35 10) rotate(90)"/>
</clipPath>
</defs>
</svg>
