<svg width="34" height="34" viewBox="0 0 34 34" fill="none" xmlns="http://www.w3.org/2000/svg">
<circle cx="17" cy="17" r="16.5" stroke="#4C98AA"/>
<g clip-path="url(#clip0_95_2)">
<path d="M19.1596 23.2083L25.8333 16.5L19.1596 9.79167C19.0994 9.71252 19.0228 9.64724 18.9351 9.60026C18.8474 9.55328 18.7507 9.52569 18.6514 9.51935C18.5521 9.51302 18.4526 9.52809 18.3597 9.56355C18.2667 9.599 18.1825 9.65402 18.1126 9.72486C18.0428 9.79571 17.989 9.88073 17.9548 9.97418C17.9207 10.0676 17.9071 10.1673 17.9148 10.2665C17.9226 10.3657 17.9515 10.462 17.9998 10.5491C18.048 10.6361 18.1144 10.7117 18.1944 10.7708L23.1874 15.8056L9.9027 15.8056C9.71852 15.8056 9.54189 15.8787 9.41165 16.009C9.28142 16.1392 9.20825 16.3158 9.20825 16.5C9.20825 16.6842 9.28142 16.8608 9.41165 16.991C9.54189 17.1213 9.71852 17.1944 9.9027 17.1944L23.1874 17.1944L18.1944 22.2292C18.0645 22.3599 17.9919 22.5369 17.9926 22.7212C17.9932 22.9055 18.0671 23.082 18.1978 23.2118C18.3286 23.3417 18.5056 23.4142 18.6899 23.4136C18.8742 23.4129 19.0506 23.3391 19.1805 23.2083L19.1596 23.2083Z" fill="#4C98AA"/>
</g>
<defs>
<clipPath id="clip0_95_2">
<rect width="25" height="25" fill="white" transform="translate(30 4) rotate(90)"/>
</clipPath>
</defs>
</svg>
