<svg width="53" height="39" viewBox="0 0 53 39" fill="none" xmlns="http://www.w3.org/2000/svg">
<path d="M50.3484 7.42549e-06L2.64705 3.25531e-06C2.1641 0.00149133 1.6907 0.132409 1.27782 0.378661C0.864936 0.624914 0.528203 0.977174 0.303864 1.39753C0.079525 1.81789 -0.023925 2.29042 0.00465098 2.76427C0.033227 3.23811 0.192745 3.69532 0.466036 4.08669L24.3167 37.9471C25.3052 39.351 27.685 39.351 28.6761 37.9471L52.5268 4.0867C52.8028 3.69615 52.9647 3.2387 52.9949 2.76407C53.025 2.28944 52.9222 1.81576 52.6977 1.39452C52.4731 0.973268 52.1354 0.620554 51.7212 0.374701C51.3071 0.128848 50.8323 -0.000741585 50.3484 7.42549e-06Z" fill="#4C98AA"/>
</svg>
