<svg width="35" height="36" viewBox="0 0 35 36" fill="none" xmlns="http://www.w3.org/2000/svg">
<path d="M17.5018 12.4727C16.1094 12.4727 14.774 13.0258 13.7894 14.0103C12.8049 14.9949 12.2518 16.3303 12.2518 17.7227C12.2518 19.115 12.8049 20.4504 13.7894 21.435C14.774 22.4195 16.1094 22.9727 17.5018 22.9727C18.8941 22.9727 20.2295 22.4195 21.2141 21.435C22.1986 20.4504 22.7518 19.115 22.7518 17.7227C22.7518 16.3303 22.1986 14.9949 21.2141 14.0103C20.2295 13.0258 18.8941 12.4727 17.5018 12.4727ZM17.5018 8.97266C19.8224 8.97266 22.048 9.89453 23.6889 11.5355C25.3299 13.1764 26.2517 15.402 26.2517 17.7227C26.2517 20.0433 25.3299 22.2689 23.6889 23.9098C22.048 25.5508 19.8224 26.4727 17.5018 26.4727C15.1811 26.4727 12.9555 25.5508 11.3146 23.9098C9.67362 22.2689 8.75175 20.0433 8.75175 17.7227C8.75175 15.402 9.67362 13.1764 11.3146 11.5355C12.9555 9.89453 15.1811 8.97266 17.5018 8.97266ZM28.8767 8.53516C28.8767 9.11532 28.6463 9.67172 28.236 10.082C27.8258 10.4922 27.2694 10.7227 26.6892 10.7227C26.1091 10.7227 25.5527 10.4922 25.1425 10.082C24.7322 9.67172 24.5017 9.11532 24.5017 8.53516C24.5017 7.955 24.7322 7.3986 25.1425 6.98836C25.5527 6.57812 26.1091 6.34766 26.6892 6.34766C27.2694 6.34766 27.8258 6.57812 28.236 6.98836C28.6463 7.3986 28.8767 7.955 28.8767 8.53516ZM17.5018 3.72266C13.1723 3.72266 12.4653 3.73491 10.451 3.82416C9.079 3.88891 8.1585 4.07266 7.3045 4.40516C6.59021 4.6683 5.94426 5.08877 5.4145 5.63541C4.86723 6.16499 4.44616 6.81095 4.1825 7.52541C3.85 8.38291 3.66625 9.30166 3.60325 10.6719C3.51225 12.6039 3.5 13.2794 3.5 17.7227C3.5 22.0539 3.51225 22.7592 3.6015 24.7734C3.66625 26.1437 3.85 27.0659 4.18075 27.9182C4.47825 28.6794 4.82825 29.2272 5.40925 29.8082C5.999 30.3962 6.54675 30.7479 7.29925 31.0384C8.16375 31.3727 9.08425 31.5582 10.4493 31.6212C12.3813 31.7122 13.0568 31.7227 17.5 31.7227C21.8312 31.7227 22.5365 31.7104 24.5507 31.6212C25.9192 31.5564 26.8398 31.3727 27.6955 31.0419C28.4098 30.7788 29.0557 30.3583 29.5855 29.8117C30.1753 29.2237 30.527 28.6759 30.8175 27.9217C31.15 27.0607 31.3355 26.1402 31.3985 24.7717C31.4895 22.8414 31.5 22.1642 31.5 17.7227C31.5 13.3932 31.4877 12.6862 31.3985 10.6719C31.3337 9.30341 31.1483 8.37941 30.8175 7.52541C30.5544 6.81111 30.1339 6.16517 29.5872 5.63541C29.0577 5.08813 28.4117 4.66706 27.6973 4.40341C26.8398 4.07091 25.9192 3.88716 24.5507 3.82416C22.6205 3.73316 21.945 3.72266 17.5 3.72266M17.5 0.222656C22.2547 0.222656 22.848 0.240156 24.7152 0.327656C26.5772 0.415156 27.8477 0.707406 28.9625 1.14141C30.1175 1.58591 31.0905 2.18791 32.0635 3.15916C32.9537 4.03369 33.6423 5.09198 34.0812 6.26016C34.5135 7.37491 34.8075 8.64541 34.895 10.5092C34.9772 12.3747 35 12.9679 35 17.7227C35 22.4774 34.9825 23.0707 34.895 24.9362C34.8075 26.8017 34.5135 28.0687 34.0812 29.1852C33.6423 30.3533 32.9537 31.4116 32.0635 32.2862C31.189 33.1764 30.1307 33.865 28.9625 34.3039C27.8477 34.7362 26.5772 35.0302 24.7152 35.1177C22.848 35.1999 22.2547 35.2227 17.5 35.2227C12.7452 35.2227 12.152 35.2052 10.2847 35.1177C8.42275 35.0302 7.154 34.7362 6.0375 34.3039C4.86933 33.865 3.81103 33.1764 2.9365 32.2862C2.04629 31.4116 1.35768 30.3533 0.91875 29.1852C0.48475 28.0704 0.1925 26.7999 0.105 24.9362C0.0209999 23.0707 0 22.4774 0 17.7227C0 12.9679 0.0174999 12.3747 0.105 10.5092C0.1925 8.64366 0.48475 7.37666 0.91875 6.26016C1.35768 5.09198 2.04629 4.03369 2.9365 3.15916C3.81103 2.26894 4.86933 1.58033 6.0375 1.14141C7.15225 0.707406 8.421 0.415156 10.2847 0.327656C12.1537 0.245406 12.747 0.222656 17.5018 0.222656" fill="black"/>
</svg>
