<svg width="15" height="15" viewBox="0 0 15 15" fill="none" xmlns="http://www.w3.org/2000/svg">
<path d="M3.01667 6.12722C4.21667 8.35315 6.15 10.1701 8.50833 11.3106L10.3417 9.58017C10.5667 9.3678 10.9 9.29701 11.1917 9.3914C12.125 9.68242 13.1333 9.83973 14.1667 9.83973C14.625 9.83973 15 10.1937 15 10.6263V13.3713C15 13.8039 14.625 14.1579 14.1667 14.1579C6.34167 14.1579 0 8.17225 0 0.786549C0 0.353947 0.375 0 0.833333 0H3.75C4.20833 0 4.58333 0.353947 4.58333 0.786549C4.58333 1.76974 4.75 2.71359 5.05833 3.59453C5.15 3.86982 5.08333 4.17658 4.85 4.39681L3.01667 6.12722Z" fill="#242422"/>
</svg>
