<svg width="62" height="61" viewBox="0 0 62 61" fill="none" xmlns="http://www.w3.org/2000/svg">
<path d="M18.5976 37.3392L26.4693 29.4643L5.72774 8.71966C4.57167 7.56324 3.92222 5.99501 3.92222 4.35983C3.92222 2.72465 4.57167 1.15642 5.72774 -5.58389e-06L43.0669 37.3392C45.6528 35.8145 48.7059 35.2852 51.6541 35.8506C54.6023 36.416 57.243 38.0373 59.0813 40.4104C60.9197 42.7836 61.8293 45.7458 61.6399 48.7417C61.4504 51.7376 60.1748 54.5615 58.0521 56.6842C55.9295 58.8069 53.1055 60.0825 50.1096 60.272C47.1137 60.4614 44.1515 59.5518 41.7783 57.7134C39.4052 55.8751 37.7839 53.2344 37.2185 50.2862C36.6531 47.338 37.1824 44.2849 38.7071 41.699L30.8322 33.8242L22.9574 41.699C24.4821 44.2849 25.0113 47.338 24.4459 50.2862C23.8805 53.2344 22.2593 55.8751 19.8861 57.7134C17.513 59.5518 14.5508 60.4614 11.5549 60.272C8.55898 60.0825 5.73502 58.8069 3.61236 56.6842C1.48971 54.5615 0.214081 51.7376 0.0246062 48.7417C-0.164868 45.7458 0.744816 42.7836 2.58314 40.4104C4.42146 38.0373 7.06221 36.416 10.0104 35.8506C12.9585 35.2852 16.0117 35.8145 18.5976 37.3392ZM35.1828 20.7508L55.9337 -7.77846e-06C57.0897 1.15641 57.7392 2.72465 57.7392 4.35982C57.7392 5.995 57.0897 7.56324 55.9337 8.71966L39.5427 25.1137L35.1828 20.7508ZM44.9724 43.6045C44.3834 44.1733 43.9136 44.8538 43.5904 45.6062C43.2673 46.3585 43.0971 47.1677 43.09 47.9865C43.0829 48.8053 43.2389 49.6174 43.549 50.3752C43.8591 51.1331 44.317 51.8216 44.896 52.4006C45.475 52.9796 46.1635 53.4375 46.9214 53.7476C47.6792 54.0576 48.4912 54.2137 49.31 54.2065C50.1289 54.1994 50.938 54.0293 51.6904 53.7061C52.4428 53.3829 53.1232 52.9131 53.6921 52.3242C54.8484 51.1675 55.4978 49.5988 55.4975 47.9632C55.4972 46.3277 54.8472 44.7593 53.6905 43.603C52.5338 42.4467 50.9652 41.7972 49.3296 41.7975C47.6941 41.7978 46.1287 42.4478 44.9724 43.6045ZM16.689 43.6045C16.1201 43.0155 15.4397 42.5457 14.6873 42.2225C13.935 41.8993 13.1258 41.7292 12.307 41.7221C11.4882 41.715 10.6761 41.871 9.91827 42.1811C9.16041 42.4912 8.47189 42.9491 7.89289 43.5281C7.31388 44.1071 6.85599 44.7956 6.54592 45.5534C6.23586 46.3113 6.07983 47.1233 6.08694 47.9421C6.09406 48.7609 6.26417 49.5701 6.58736 50.3225C6.91055 51.0748 7.38034 51.7553 7.96932 52.3242C9.13237 53.4475 10.6901 54.069 12.307 54.055C13.9238 54.0409 15.4705 53.3924 16.6139 52.249C17.7572 51.1057 18.4058 49.559 18.4198 47.9421C18.4339 46.3253 17.8123 44.7675 16.689 43.6045Z" fill="#4C98AA"/>
</svg>
